<svg width="1024" height="312" fill="none" xmlns="http://www.w3.org/2000/svg"><g clip-path="url(#a)"><path d="M180.7 151.8 0 111.8v-72l149.7 72H141h742-8.7l149.7-72v72l-180.7 40H180.7Z" fill="#888"/><path d="M180.7 149 0 109V37l149.7 72H141h742-8.7L1024 37v72l-180.7 40H180.7Z" fill="#1A1A1A"/><path d="m817 164.1 207-33v147.3H832.1L724.6 164.1h92.3Z" fill="#888"/><path d="M832.1 231H905l119-15v11.4l-83 9.5-33.5 14.9v-12.5H886v19.2l-22 10.2-31.9-20.9v-17Z" fill="#1A1A1A"/><path d="M832.1 231v-8h71.5l120.4-18.8v12l-119.1 14.7h-72.8Z" fill="#FAFBFC"/><path d="M900 113.1v6.1l124-50.9V59l-124 54.1Z" fill="#888"/><path d="m932.1 106 87.5-13v-2.7l-81.4 13.2V86.8l-2.8 1.8v13.3L932 106Zm-57.8 3v-3L1024 32v5l-149.7 72ZM886 86.6v3.1l138-81v-5L886 86.6Zm-32.2 77.5h3.8V141h-3.8v23Zm50.4-9.3h3.7v-23.3h-3.7v23.3Zm56-11.7h3.7V120h-3.7v23Zm60-9.5h3.8v-31.5h-3.8v31.5Z" fill="#888"/><path d="M886 83.9v18.6l2.1-1.3v-18l-2.1.7Zm38.5-21.2v21l2.1-1.4V62l-2.1.7Z" fill="#888"/><path d="m915.5 86.8 9-24.1 2.1-.7L941 75.5l-3 1.9-11.7-11.5-7.9 20.3-3 .6ZM986 27.2v25.7l2.6-1.8V26.3l-2.6.9Z" fill="#888"/><path d="m975 56.6 11-29.4 2.6-.9 17.5 16.5-3.6 2.3-14.3-14-9.6 24.8-3.6.7Z" fill="#888"/><path d="m1000.9 43.4 23.1-31.2v5.2L1004.3 44l-3.4-.6ZM887.7 85.8V89l19.9 2.4 7.8-4.7-25.8-3-2 2Z" fill="#888"/><path d="m887.7 89.1 6.5 8.9 2.5-1.6-8.6-11.7-.4 4.4Zm-680.7 75-207-33v147.3h191.9l107.5-114.3h-92.3Z" fill="#888"/><path d="M191.9 231H119L0 216v11.4l83 9.5 33.5 14.9v-12.5H138v19.2l22 10.2 31.9-20.9v-17Z" fill="#1A1A1A"/><path d="M191.9 231v-8h-71.5L0 204.2v12l119.1 14.7h72.8Z" fill="#FAFBFC"/><path d="M124 113.1v6.1L0 68.3V59l124 54.1Z" fill="#888"/><path d="M91.9 106 4.4 93v-2.7l81.4 13.2V86.8l2.8 1.8v13.3L92 106Zm57.8 3v-3L0 32v5l149.7 72ZM138 86.6v3.1L0 8.7v-5l138 82.9Zm32.2 54.3h-3.8V164h3.8v-23Zm-50.4-9.4h-3.7v23.3h3.7v-23.3Zm-56-11.6h-3.7V143h3.7v-23Zm-60-17.8H0v31.6h3.8V102Z" fill="#888"/><path d="M138 83.9v18.6l-2.1-1.3v-18l2.1.7ZM99.5 62.7v21l-2.1-1.4V62l2.1.7Z" fill="#888"/><path d="m108.5 86.8-9-24.1-2.1-.7L83 75.5l3 1.9 11.7-11.5 7.9 20.3 3 .6ZM38 27.2v25.7L35.4 51V26.3l2.6.9Z" fill="#888"/><path d="M49 56.6 38 27.2l-2.6-.9-17.5 16.5 3.6 2.3 14.3-14 9.6 24.8 3.6.7Z" fill="#888"/><path d="M23.1 43.4 0 12.2v5.2L19.7 44l3.4-.6Zm113.2 42.4V89l-19.9 2.4-7.9-4.7 26-3 1.8 2Z" fill="#888"/><path d="m136.3 89.1-6.5 8.9-2.5-1.6 8.6-11.7.4 4.4Zm604 72.1H283.7l-54.8 43h566.2l-54.8-43Zm32.9 52.2H250.8L141 286.3h742l-109.8-72.9Z" fill="#888"/><path d="M442 213.8 406.8 290h-67.5l52-76.2H442ZM684.7 290h-67.5L582 213.8h50.7l52 76.2ZM351 213.8 272.6 290h-70l99.3-76.2h49.3ZM821.5 290h-70l-78.6-76.2h49.3l99.3 76.2Zm-275.9-3.3v3.3h-67.1v-3.3l9-72.9h49l9 73Z" fill="#FAFBFC"/><path d="m774.3 187.8-34-26.6H283.7l-34 26.6h524.6Z" fill="#1A1A1A"/><path d="M817 157.3H207v6.8h610v-6.8Z" fill="#1D1D1D"/><path d="M795.1 204.2H228.9v9.2H795v-9.2Z" fill="#F0F0F0"/><path d="M1024 278.4H0v66.7h1024v-66.7ZM870.6 114.3l12.4-5.2H118.3l12.5 5.2h739.8ZM256 109l-14-22.2h-2.5l-14 22.3h2.3l9.7-15.6-5.8 15.6h1.3l7.8-20.8 7.8 20.8h1.3L244 93.5l9.8 15.6h2.2Zm67.1 0-14-22.2h-2.4l-14 22.3h2.2l9.8-15.6-5.9 15.6h1.3l7.8-20.8 7.8 20.8h1.3l-5.8-15.6 9.7 15.6h2.2Zm67.1 0-14-22.2h-2.4l-14 22.3h2.2l9.8-15.6-5.8 15.6h1.3l7.7-20.8 7.8 20.8h1.3l-5.8-15.6 9.8 15.6h2.1Zm67.2 0-14-22.2H441l-14 22.3h2.3l9.7-15.6-5.8 15.6h1.3l7.8-20.8 7.8 20.8h1.3l-5.9-15.6 9.8 15.6h2.2Zm68.4 0-14-22.2h-2.4l-14 22.3h2.2l9.8-15.6-5.9 15.6h1.3l7.8-20.8 7.8 20.8h1.3l-5.8-15.6 9.7 15.6h2.2Z" fill="#888"/><path d="M191.9 86.8H188v77.3h3.8V86.8Z" fill="#888"/><path d="m201 109-11-22.2h-1.7l11 22.3h1.7Z" fill="#888"/><path d="m180.1 109 8.7-22.2h1.4l-8.7 22.3H180Zm69.9 0 27.5-43.6-1.7-.9-28 44.6h2.3Zm-30.4 0L194 85.7l-4 3.7 21.5 19.8h8Z" fill="#888"/><path d="M188.1 86.8v3.5h322.5v-3.5H188.1Z" fill="#888"/><path d="m188.1 90.2 90.2-22.3-1-3.4-89.2 22v3.7ZM761.3 109l14-22.2h2.4l14 22.3h-2.2l-9.8-15.6 5.9 15.6h-1.3l-7.8-20.8-7.8 20.8h-1.3l5.8-15.6-9.7 15.6h-2.2Zm-67.2 0 14-22.2h2.5l14 22.3h-2.2l-9.8-15.6 5.8 15.6h-1.3l-7.7-20.8-7.8 20.8h-1.3l5.8-15.6-9.8 15.6h-2.2Zm-67.1 0 14-22.2h2.5l14 22.3h-2.3l-9.7-15.6 5.8 15.6H650l-7.8-20.8-7.8 20.8h-1.3l5.9-15.6-9.8 15.6H627Zm-67.1 0 14-22.2h2.4l14 22.3h-2.2l-9.7-15.6 5.8 15.6h-1.3L575 88.3l-7.8 20.8H566l5.9-15.6-9.8 15.6h-2.2Zm265.5 55.1h3.8V86.8h-3.8v77.3Z" fill="#888"/><path d="m816.3 109 11-22.2h1.7l-11 22.3h-1.7Z" fill="#888"/><path d="m837.2 109-8.7-22.2H827l8.7 22.3h1.4Zm-70 0-27.4-43.6 1.7-.9 28 44.6h-2.3Zm30.5 0 25.5-23.4 4 3.7-21.4 19.8h-8Z" fill="#888"/><path d="M506.7 86.8v3.5h322.5v-3.5H506.7Z" fill="#888"/><path d="M829.2 90.2 739 67.9l1-3.4 89.2 22v3.7Z" fill="#888"/><path d="M243.2 218.5h537.6l-7-4.7H250.2l-7 4.7Z" fill="#1A1A1A"/><path d="M658.9 213.8H365l-33.2 32H692l-33.2-32Z" fill="#1A1A1A"/><path d="M1024 277.1H0v5.3h1024V277ZM284.9 64.5h-9.5v99.6h9.5V64.5Zm447.5 99.6h9.5V64.5h-9.5v99.6ZM138 83.9v3L0 6V1l138 83Zm748 0v3l138-81V1L886 84Z" fill="#F0F0F0"/></g><defs><clipPath id="a"><path fill="#fff" transform="translate(0 1)" d="M0 0h1024v344.1H0z"/></clipPath></defs></svg>
